<mxfile host="app.diagrams.net" agent="Mozilla/5.0 (Windows NT 10.0; Win64; x64; rv:137.0) Gecko/20100101 Firefox/137.0" version="26.2.12">
  <diagram name="Page-1" id="-g_BvU5MqunmpFAj56iR">
    <mxGraphModel dx="1044" dy="1671" grid="1" gridSize="10" guides="1" tooltips="1" connect="1" arrows="1" fold="1" page="1" pageScale="1" pageWidth="850" pageHeight="1100" math="0" shadow="0">
      <root>
        <mxCell id="0" />
        <mxCell id="1" parent="0" />
        <mxCell id="Py2XDcjCVGJPJYWyRsPz-22" value="" style="group" vertex="1" connectable="0" parent="1">
          <mxGeometry x="980" y="72.5" width="230" height="275" as="geometry" />
        </mxCell>
        <mxCell id="Py2XDcjCVGJPJYWyRsPz-18" value="" style="rounded=0;whiteSpace=wrap;html=1;dashed=1;dashPattern=8 8;strokeColor=light-dark(#3333FF,#004A4A);strokeWidth=2;" vertex="1" parent="Py2XDcjCVGJPJYWyRsPz-22">
          <mxGeometry width="230" height="275" as="geometry" />
        </mxCell>
        <mxCell id="Py2XDcjCVGJPJYWyRsPz-17" value="" style="shape=image;verticalLabelPosition=bottom;labelBackgroundColor=default;verticalAlign=top;aspect=fixed;imageAspect=0;image=data:image/png,iVBORw0KGgoAAAANSUhEUgAAAS0AAACnCAMAAABzYfrWAAABNVBMVEX///8zMzP8tRYwMDD/uxMYGBjt7ewiIiLz8/InJycqKiouLi3i4uEkJCX/txUbGxyjo6PW1dKbm5uTk5IAAABWVlYkIh/8sQA5OTiysK2+vLlbW1v29vZ+fn15d3McJzQqLjNDQkITExMlKzTHx8dlZGJxcG7lphr+79IQIjVpVjdSRTBBQUDVmx7DwsHd3dxOTUu2hyj/+fDyrxr+3awAHTSBZjQ/OjGRcDKeeC5HPzG8iiJRSDlhWEhrYlP/4aEXGh4ADRekgD90XTOkeib8wlD90Yb8vkCtgCUAGDfNlyfrqh7/6b2heCezgABeTzWIdleKbTkAECGln5biqzv/vTEOGiX9ynDc08fhyJz+8t/3v1Olq7JvWzX91I+RlZuFYRP6x2cADTgyLSMjHRGVjYKidAOjQTbrAAAPdElEQVR4nO2bC1fbSJbHXaqSZEm25AfYsi0h2fIjBr/AAQykJ9mBTAg0zfb09vRMejKzPb273/8jzL1VMn7JJgOZ0Bvqdw7n4LIsV/1169a9t8qplEQikUgkEolEIpFIJBKJRCKRSCQSiUQikUgkEolEIpFIJBKJRCKRSCQSiUQikUgkEolEIpE8RyqfcE3m396L/x8MR41R/p5rMq2G/0U681snp1rEcnxv1qJlkPSsIe3rJsn2pHmlfJUgeomblzYofuMajqqqJav+ux/yXMOcmsVLLH3wtF19crztrBCrjkpUW7pjUEoI/hFqZR3ig4hesWTiRVTNPXV/n5R0L5ahAC9e772xCA2jIIhOT92oG0QhoeZ//P4FuK2aw0VVi0/d46dkxMUyesNU6qVd7gdhcHy+3x+PFUUZd64uPoJg4bj8FvTKNdDciFN46i4/HTU+DfW2lzp4V1YUdn7eVxizFZv/AeP9vX2m2OU/pFJ5auHFjefru/I6GIwDocELG8QCQKDrq2v7Kryyx0cXXDob28vvDlKaC3JRkr7/tl8r+QYX66XQSmHK2W6wa9sXh/s2OznsupM+42opZftFSiMWcZpP3eWnZLA1E8tWLt0geN+32U13wpTx0XE3CG6vhF52GeSizrP28jzpicVi/eMgcG86tsImAagFltY5IkGwe82Eeb1I5XtP3d0n59tYrJMgci8VtCR2FO2iQsxm45sois64XLZ9kNrgtNJr+HID+RJkvhOmcx4ER+DVFYge2G24B6Jdn1yDXp3bgFsayPWfG27TdGgijRQmTr3efGb11Gh+EXlIj7YP+2hOe2hCNtuPcCaehscoT3B41IG2SRB8jxNz8scf1t9mk1r1LKXZ0UPH9vnJbBmA/gCzrzike22zj1HYYWBH7/dQpmMagInZnUk3OLFtdhEEN8y+6JL/WZ9XN0WwvwKoNeCZaOO+MseXI8M7ZP3raqV1En5kYD6l/3r77iwI9nHOjQkqCHKx6/PD2/GPb3//Jrhi0GrW1t5og1oVncfAn1JE+zI8WC3fIMGYXQVqFWzgj9+MUSz7OiJBX8QN7Ls/jWB++1l3zPYDoq41kOaWLjCFSkb8cosHdV+HbXk6icCFu1mIuvJbLbE+2p2ABPtxVPoiY6LHGUVHjO2FZmvdnbSqYOCL1LMQv4ankGo5pqm2HzO+z8tD1YJJAqZ1EbheSlO3UyKcsPsBiYRaEGOBijDQvBP0wQQ3ea6YHM89nQVLyrVav515+HC1RjQ8YkrowFhaDQ1bfiorNqgSneCcxGwaxroFmfQOGJdCSPbeCleSWr8xHqhWxgEHxc4Cgn5HPP0DUOsiIigiWNkBb9umXmroRGN2E9F7A4FPVcvTNC/5xf14jwveHqgWTkSbHb0ppFKFetz2S5mhWhjMl38STU0dcukWrJdgdCXtnnsmqKVx8L/hoNlsDuC9Qcsqldy2yNEr26RUotuLZpseFNutVrvQXBpUPtcaEdLbLjaXJBvm/HbLzy025yt+u+1X8cs9QSpJLW1QKRYL1eHGkfkm2lD05s9zbS/L7CgkFIP58st5Fd7s4lS8twixqpa21VBVdQt7XMSVs9FO7agm1rNNFVaXYd2x8IXljGa91XYMxzAty8w6peLcA8q3GlkLo17LcCx/zonmemrWBLKONQvSKz1Vx0Zdhza+/JjFBLXyLcfRMV5V3eIGY3BptM/6wa+v59q+FWodxz7+jr/8iYzZbniv40pQi8db3C0WDOyxX9Sn4ZiaS1vW9IV5N4CKY85CNkO9WyIqjbl2atyVRPKuTu+as2ZVfG/NuWvUR2nfAJGzq2ql27ObUsNYXxzOEog6L4Lzt/DUR+1CFbd4PpQhTSQkGttcLW9YKbTrINHPJOiwSWjuPFot0psbslszscYY6xLfvKguhrjT7YBmY7Gd6C63o+pMFj5mFe+ToXNfQ8xRC68xVtTKuMbCZ511oQ4MAxQ4CSblg6JKTQPnCNrWKdw3umRcrXZDN0yq5j6U90BZcPPfPF4tWFpLJSc2KUpM1S3FxmbwERQcYSNqqaQKm4mNSGxFYXtDRMGNyryI1DItfjlOcM8VX0BhHmateBtrVS0sceIL3VGdLL9EXyNXpkS6Y3Ye3Nh/+KvYpFDTEEKwj2BbJDhXyn+LR0obf/2F7YKb379/UfwUtbK5dHpYix+9vpPx0hUxNBU9l4j99VEuk05rlbr4NLrLgcMlKWB71S8ZsYieGCXRSctvUbicz9y2+CrT8ivVXG06UVfU4r2gTqvSHDZzPf5dTrKzGUJGDQl1cGaXX/7ddUyapUOMIPa7+KHouMMOMsQA99D7++syqHUByQ+tJ97qX1IrThl7fARxehAnk7hHUsd2/a5KW+Qa4UPy8dP61LVr/pY4bMCbCdUrOCu9io5ZHI5NGIpw+U1hdCtqVfjNs9Vp5/mnnERXn4nVugQX9W0q7xMfAwgIsyZdtK4w+O6nlOcbxXzqdVkBtS4/j1qUJFzpWVMdmzgWY+7URRGvw7UYV7V52xbLsyecXGmq4pA3iwTMvJtVGTNxJrr8ycw6W1WnF60g/NZRcMNjqw/QcvAzL6Syq1cB3qb7378cpLzUB5SQ7XavcCZuP1otK042RdmiFC9NIxqrtWPOBBWgEeK4uQKGv5R8VcX0qS40esLFmbPgi1vRslr8ySws8238diNpYF7s5SFhPt21y+/evivHmz+2fXaKekV7HWwdYyJ02u2zk8h8vJefLqtD7Cp14wHVLKEWHycd+XOMeDg2LZSZ6mgnN5zJwDWk7mIv8ipZNpJewppY5E+vUp1RNEliJgJP2KLBGSQ+u4wddblGyh22ve9GMBuxomp33p+xcRTCihDC1+U37ld/ulpaolpp7uOpOYdYqrTp1jq8mVWJPw2TZyrMIdzgQijdNlfV4m0kq88w5xzr/IdLIJgVTlgniCCRfn82J5XY1hifhKBX93tQ7moMqfaxrZzSbCU12Kou3+xBamUS1RouxVpTHFgutfpdEEpNh4gZZE2n8Gov1PlJy+1oSa0RTfyulRA150D3i0Z4y5gLi6ISfWTKMqBXEJLoVYfZCri3CRt3cY0vZEsbcubHqpUXwZa1jKgmFk3dvBPMqaPPS6zMFoRa84tbIUGt3hq1liwVAjq9ij2DgOskOGds8r6/bFyi1ByEYQizUTkGtwVOnngwLqqvL3M9Vi3ROtpeJk4ivUq7rjqGCM9MF0Z8TBOsIe7FfJrsJ8xEYVulZRqLaqXBfPGDOsbsnSC4tsfh7apaqFcf9AomCjsjsCxi4uPhqkHXZp+PVcsr4aA2ZqNas9gyeLJjtNGd4NCXlurqqsXVE7x8C8dS95b3QJfKRxjQ4TLim+Erxm6j7xm7fH+yOhe5Xld7QbDXYX2QlTgDsfCra4/aPFYt/rzvL6N5Ax4qwV3jSbfoHERwas0VxvNJEQT3Zfp9RSi+ZMAX4FTss36327HZ0eFZklx4zObstBvuw8IZ0uM4RrTW1uMerZYYQXJlev4ZaY74HrEs0NFij0Smrs4WxZGVoNZKJJxIWo17PaIhxA/fB3uKrewdrqyLwOTjGBQ7C3HGEv2HVNqZG/C/Qy0xltLdOLXtnan7qW6N5vTC6zBGEM7HHAlf6rV5/M4TAHiqUwfrZ0mCWsLNO7NHU1mOfTk80IAcGhJV3EN0wdGDXP+4XpbLvvrHxLbHV+Oxjab1qyfUcNafeXu0WmJgVBeFOa1QMk21xW8H6TZ1ejkxcfL8A43MNAvHc9nV5qBIDB3vr5V4IzV59piPj9eu5on8X8ePqzdtx1Dbqws+dz740W2LQNTZ57vRCm70sJlgGK3aeILr1SEZY/keHoLH65xk5YafUa2UqLUYpXqtVhfHqU3cSEm7ccGmV6vVXNUi0xC+GO/8mhBdGnCNjlNLJMigOqnVeo61rmLT4im5YdR8f2ek8vLq1mrJRvjINH4SN6v3g+6Jjepc34xjvWA5vGQo2fhVcDxmnYhg1pPDoesbovnPoFbGimN2K64ciHLgTiN+hcGY+Lch4uSdpY1yHgG0dTJ3F+rWEquBXlyatKY5A7GsVa/Pk0xMVQswF09QrmAXj9fsd4OjKxvPIl3eovMH4yIR6TBlL8TNRG7glG7Yc9mslk4pnVZIMw2sr9+pZcKr2LlrI31+8JYqnk7Fdaz5dnr3+5CiOvcGdba582mrs9jTNDJJ8RaQri1KbZCkJZL7NywFtQ0SXIAfjw7xKDPEemFwfHJ1FGIYP2Gg1vtXY6bchvxiDFA2mlaq0MD4bmthF4O3YCdybr1ed+Mxaha86NVjtVo9eEWm/rag67H5UFPdvrtZdVs1phJYujnzzs2RGh/0Nx1rGqxViWOKUoTa0sA0cQeFq7WVzWZ1Z7oJUIiLpoSX+pOPTvHFk5bSvCTbvWGsg9JcHfIPRQEWuCCnxqM2FwpTXoXE+d/YGdDepu289Gw/7E6ulZb7SedqBH8SYtb9Ba87LI5M1dEd1axVFrrRLI5co0R77epcc7XVs0pWnWfg+QGS5/fm3F2nFeolB6R01F5x3SYZXxZNiIHxsHJwZDN0Uv1JqE+N2nxzPBlzB9Y5DvlpXhHhrY9MPy+elsloCVuk6Ux+kM8kvOEtB+H86qRbrKA1q5Vqc8MTTfN8Hs+LaK5Joj2eJ9rsl2pNxUhfN9rNd+JM4GUkxMrwyXFvMPd1MuBxCsqQrkHCuCukOQBrL1A6qsAjeSGKg8chVX8Asfj2CH2uJ3XFJijKlfLV6IKfE+EbsZoV7y38jPbGjt78+uepWPNF7GeGCM30Gsz2ZniFypSxOp93zazO1wZxnuv/2mBwTbEYNTZVAr9ytsXOCMGV4KUC0vwIUY2lOqOKo5fcAT9xU36LChZE8PKsf3Pn1cVenAj/Xv9YfgsxY8kteql8y1QhvLD5D8hSmZoIF5/3L+5gMgoZdJfPsA8v8SiVeIcvva/RrlJ+wxKiPmfL4sS/FDY31N/ENgwxzWf9kyiBOP0jyowr653HY19e/dC35a/QgSGecxJ74L7ZzjUzIiD2hoNijeetnosHYZ7xr14XqZhZoVZTNbOQnbm9Xg+yNN2weLnbc02ntvmU4bMiXSyJTROxwcZ/ocP/4WdEPHX0fH8fnIgmlrvKYrFHVKw9qdUaRovHD5+6O79xhpahOno2q+uOY5FnmxN+MlpmUK1UKtVmUglJIpFIJBKJRCKRSCQSiUQikUgkEolEIpFIJBKJRCKRSCQSiUQikUgkEolEIpFIJBKJRCKRSCRfE/8Eph15mOguihUAAAAASUVORK5CYII=;" vertex="1" parent="Py2XDcjCVGJPJYWyRsPz-22">
          <mxGeometry width="90.12" height="50" as="geometry" />
        </mxCell>
        <mxCell id="Py2XDcjCVGJPJYWyRsPz-21" value="Hypertables" style="shape=cylinder3;whiteSpace=wrap;html=1;boundedLbl=1;backgroundOutline=1;size=15;" vertex="1" parent="Py2XDcjCVGJPJYWyRsPz-22">
          <mxGeometry x="70.05999999999995" y="71" width="89.88" height="133" as="geometry" />
        </mxCell>
        <mxCell id="Py2XDcjCVGJPJYWyRsPz-20" value="" style="group" vertex="1" connectable="0" parent="1">
          <mxGeometry x="290" y="60" width="190" height="300" as="geometry" />
        </mxCell>
        <mxCell id="Py2XDcjCVGJPJYWyRsPz-3" value="" style="rounded=0;whiteSpace=wrap;html=1;dashed=1;dashPattern=8 8;strokeColor=#66FFFF;strokeWidth=2;" vertex="1" parent="Py2XDcjCVGJPJYWyRsPz-20">
          <mxGeometry width="190" height="300" as="geometry" />
        </mxCell>
        <mxCell id="Py2XDcjCVGJPJYWyRsPz-5" value="" style="shape=image;verticalLabelPosition=bottom;labelBackgroundColor=default;verticalAlign=top;aspect=fixed;imageAspect=0;image=data:image/png,iVBORw0KGgoAAAANSUhEUgAAAVwAAAF7BAMAAABskS6RAAAAKlBMVEXu7u7///8AAAD09PT6+vofHx9aWlqSkpK8vLzf3995eXnPz887OzupqamdOne1AAATWUlEQVR42uyd728btxnH7yK1wLa8OPrOsmXZQHKr5NiWAd3sFcO6F1KS/UrezGq9/FgK1FqaocsKzAaatt4rG2vgNitQGWuaoA0we0ULuN0LF13bzR2wqPBWpBtQeSvQ/TeTdEfyIY/n2JJsPtqOr3J6KOljhiIfPvzyoUH8Yhl+wf4Y48a4MW6MG+PGuDFujBvjong0DDN4BfljjBvjxrgxbowb48a4MW6Mqx33/9M9T0xNTfUMrkeIkyQ9gmuTR66XXdfNvVjqBVzyUhO2Wc4t9QDub1xWskvocT9wQcluIscdcIUyjhvXKYu47oyNGfcbrlyWCnhxB8sh3HEbL+5JN1zqBay4loLWnbCw4varcF0TK25FiTtTwBmBHFTSupM43fPkN9W4rocS11zgk+8/frHNcedR4p5ig26u3nhcZLjHUeKyrpvfbD1/zB0HjLhsGFtrPSbYQJFFiUv9hVxgTQ4xvwEj7noAN0etpQpobnS4FThuNa3JfvAHoMOt+Wyj3DoS4I4hxE3DYcu3nqJeDkJcOo7d5VZzHT9uHeAG89yJHsFdxo+7xK3JVT6tYYtA0mFgCVgD3JyFzz2nuHVgDTrDZI/g7uDFpX13DgQW6MiAEDcT4B6zuNXFizsVTMLjHJc2+BhCXJO5OMzaRye6AkJc6kDeZXEQ5kAijDMk+5h7HlhZ8HQJY1iELX4u276VroyztlSZ7bPoxM3wmLkzlZgib7ClpSVUTpD04sbGxttVzUEntlLPN/0GRuseK8LKJrnpr/Cz/9SLu8MjIT++AiK9a7ByMs2jJ7mqrRFXHYB0s1W46+asA1Nus6gPN6PGHbXgrtuyYMuZnQer23VDPXXAdA5UNh+UjGP6BALmsLIvgMoJK7R5Ma9PzxCGCVY+tLL3asic04dr7qi2UkBlVe9e04abGImKnfuVzQcUuOPacA3vBVfdN/3Kys7SQcCvU9xEuiaxfEaAVflT7CAk1bF0yBySf0geCDvsKHHzGpVOpaOiQMAC1mLEVktdozCLXAftVrehNRWBe1wjboK8xj0CWxjmVnkf+dPtrQU4NuiUvTk+ye+ILY7KzLkZFVUwWc0qPX8ZRAqitUiHsZzXGqTZ7kCj8yLATUjWQVeM/SdH+AsIcVPQS2h5EHRge0irBjLhqzBkK10pP8qWbkNM8qBTVHgf3HleuUwDqghxg3VE1uGV6WCmFTepxq3AGJpvPIIBN6J1a1CbI24j23hxjwOtCx0sTvcG7oC0/YKp7+6CW49bd+9i7r694tLlxSl9uDbJ+JPrjZ4YGcg1ul772zy00uBYDuCuah93MzVxYcmtgUOTneaVg78gqw13RFwKn1P4DGsFWtlm8WpNuCEB7+OkIOOOMY9suFOPrMMojhWOQf6ExSfZypL5u9TD+boe97ykCiQEYZxkhv0pPwrCDgM8TKYlYHomKurRKDBqbrZWmlw/q2etllaGwNxjgmvb+mk1N334HoWelbD5x4iwh0mEsyrNFn975aUnXbCO14CbjqBt/JLI99xdip4ozmokjxzoC0dMDx/XKUfynKvtRpvTEoE847ZZZrTg7rSLqyV6nt4LWVa1S6hlb0IM5M/Oqnpy7mw5YtY7dFzYFy4+33BAFkNo+SWuRxcb9/BxAdynvvlr8ngwbxtORb3tdti4A6GdNKMkeZNrTnirhcpnDzkCmegHIgW2iS6wPeXX/ljqCloEAuBEypoVUuk1y/mgsgMVAjlPj56BawNGHWAdkH5RTbUI8Hbu6RK38FF3TrCuAzeHBk3Ih/6r+ee0aXH43nVJsA6LOoBA6WTd/nDjnURJn9Kpn6sXBCtXBMD3TpX06sgSfXxgEq0VFa5ulZ75HqWqStY+aYWJA3edL7tEa0oUECHBrfHxSrSeRY07JlvT0myLC/dYyFoDsRAsuF6Nt6FkXUeI+8MyV1lF4J5AhJtx9eC26e+mgfZVtDIB/QmrG3v5XXLPaWeYC+GuY8SlP7VPClGtewEj7oQlWZmi5UIRIe6YjMsULXcLiHArXMQvWrnexkCEy6IMtmjlS05UuNxPFK3cs6yjxL1bFKxsdnZt8b0FrbgpngZHsLKum7XE9zYDwvpwmVvrVk2lHHoU4mauXWmUfxFbF64tBJeZlUfOjgNcuuVysepowuUBhSzUF/MdlPFNOk2k+QZb/t9EE+5yqHkbo5hdg4r4Fq8p7MPmlzThDgsp3nwreVWU+Ld22sU9gbypJQIJwji+yrhp/apCNX9UPqfg6IjigAG2ySuu2dkpQdUOxpqlA5dPX83y9NbWR+uqAyjL4f2Kkg7cxNAeNn7yNxQvXrY04Bqnym1uq+VtHbhib9hPqevA3VNvUJYOTsB3sIAuVSKBnqjsupV5Wssp7FRk7zQHd91yn9dzNDSqDf9qeQO7/RCPF7XgpqIat9FTvi0eqXsFbrDlLEyp/1p7QaWbghbOabzvYdZ5k3pwR1S044FX8AWYyAqGsOtd15Rls191BrsYWJ+BbkJLgcjav6BJAxmWjLzJcpgOweZuvZPOLGNFLRpII5GWHZurbL3ANrNm6HsTAyyjlhYNZOPf9pNCT3iKMGvyCFQw+DNLTciXcfi4xrRzDTiHvyQFrpBcgJpIf2ahO/L6DoAlyVdoh7hadaCgswKOMQe4R7TjNh+psv+UoD+twWxwft1+RLhJSS6rwE0hwk3cH3dASgqGEHcGVB7Cj6tq3Wpv4A7j77sTitg6RtxKKDsHW45ixF0GUvQgtl6hog18uMmToWQiaUmrhwmXddQxWjk5zFQQhx2BNO5/GpBJ9qq08gLLUaXJPd8Nl0Ufx2xJcrim8yaaBFEfXmQ7se6mbUDdi7a1Wmv/ibzse5BPL0lWpjfN/bopKloHQT19uORdhrEWtfDM/3zlrQpMqaUPF67WnhCsA1EHJwr6cJ+RZPvQGhEp29R3E81ROcoArepTQTlbG24mnIFKKZYW1PJFbbg7ETs7wbU66xF9QROuIkiWc0BlVYxy0taGqzqmNFdUqY/Br7GgC1eZqnDUVsl5xcbVg7saNU6pR2U/p1ZBG656XG3lBKWV5aj/nK1BA+k/Rsxa47CyJx4SPa9JINAoZtTZ0E2hMlQNjHoacXm/zG1svFUW02zyyjeZ5e+lkj5cfkPVZLXxeKcsHMMGlX/g+xW5L0nR1If7fbGz8ik3F678yLP/SXqkYGjE7ZMO+LF8AqqbaBznVEGfjgxujIzSpe8I5O/OGruLuBXxuAxIF7GGGZcLs4bBEQ9suHY5lGM1g/gmmkz4JprpGv6rXeaAqLC3rnZJ7vTkTTSTpCduoqFOT4701E0041Z8E80B4PbATTSPFbi1gv8mmjEeB3EQ30RDt3FydijkOFZEfBPNErMeATcVocPdEU+mEX7oDuNNNPycuxlEOlJdCNodXFiEifsn/JS1LOV91saImwYac2caxPcmLYy4IOZ09ZXi6zzqMFNEiQtk+9ltSa2NEHc4QhB7GicuidaWY7wL21xQ4q51z8HtqkAgkYpK5oYSV60+v4AWV3l1SxUtrpEOh/snCF5c7+HQKLaJGNcoyTs7PyWYcZNSyrTHiYkZ1/CEk0o5r4Ab1yjdARs7m0UDOa5BMoFaPnue2AZ63MbjaxvvXtrY2CQFoydwiUO8ErG7z3dAuIf02Gu4B+eVInTPY9wYN8aNcWPcGDfGjXFjXM0RyNg9j3Fj3Bj3fx13+nSp0DO4hKRv30ocNK5HQOngO6xrV7Zny+9zeudAcM9sNMvi7zvEfdAPSv628Ti0sdgoG1eLB4AbnPL0D8u2j0uvmEg2HvtgHstu4/bDS8faxWUZhwDuJFpclq6n1RnQ43LhQLdbN+RZ9kNxWHteKThn5RGLSnZOHIh73jku3NjuAVwTnLkr4cf1yvCWQPS4fFzIb/cALuu6f6i2ujJuXHtYuO0UO66zClOKoMelk8Q46Q3cHegk9Qzu3d7CnUOFO0XsnsGdbgwAW5vdxn298Yl2F3D9UuAXt5Prs7NudvZeyZ91hWp0ZIjGBfX59/659YkXq3728eCL7huBDPm75q2VlRtbjbJC/c4EucW8gneah1O/tdUqnze+6OzKyouBMPKzlZWVlxMqf3ew+WmN8iVf1t+p8U9slJGVVqnv3z2nqRub42hAex1ohT512DGqprBUThL6vgqXKhFHGe4HrnhJ5kkIsR9cnhO4HrxNuvnxsk2PUU1YQI6+y2oiBRI1+N+bkpVofaFzhnvEZYdTR4O3eVLq+Gzd2yfuAsjj0PregdAR+XZxEwOueJY2kSmHcp/sD5cdJp4v+t8b0lGOto0rNG6rK4cVxvO74CpWwu/BHCTN7w0nJJ9rE1dsXKJOb33i5H5al51e+MSSV/n8P6xNXG9ZyhChSh6efWA/rdvP5IdSV4ZltT3cQUlOrlZvb++jdZm6/rGgbyizqdTaw31DkpObu91/vZfWZXLqrGmIXTnivvd94dbEk8uG7XaI67CbA/0Z1bTc7uHS//p8YE1+9364qdntS8FIl7906dKshJv8DlvRB9+b6iJuRbyVkMBzEj/71e2/LNZkXI8PTK3/kaKI61Et9aOBuwJ7173ntj56ttI+bopl3qHRe/5Jn/sv7Ei4zY9alq7U4rhsXGRpK0t80nned+9eaBt33RVWXXBun6c7Awsh3GQ0LhsXH6JfzOffN5ueYxPji91wo/1dfp/EUmBlmZ//297Z/LZRRAE8TgwnDru2Y8fGkcIGQxK70rqh4lqXcuDjAJYKRZySew/eCkVwCxISFySSA5WaC84JcSMSB1Ih4XLm0B75a2h25r15b3btnbeOBEiT23Z23v76vDvz5s2896LPGmCGkhl0t9A8x0HrGJ57i6f3efGgtcBI3IrdzXNURR9aMRZUDfGqb0eAC4PWDmYqhJdpMEIM8vVtC3A3jIGkW7E6yiwwUkyGtEJcfPWPcWEyzingaiJzBNrFINodbG3xIV737TrjvoQ1zqBvgBIJRqVbRrtjk89AteIMTMKuQ/JCFuE2MCz3tp2t7AbDaMi1u71OapXqT/6URAETKYkjbjNTcQB/mQOGgVaru3a3xmTI0gOqxu2NOG7NDXc7IYkKdd9THoQFevlQrN1PqFkesBloz1r+b7rhDiJaXkB9ps8hSp5jtMTaZfOBxn3KX90Va64rwOWZAdl71A84Bsx1W1LcAWmtQBSw7bY5lOAOQtJXD4IfWdmDQTFi7R7QL8DKS4m4iQT3gIzZYKDa2YPB7JBqdxDm4J4sdugW4Ia07zgft1orqd1npHUfHmjjXkhwp7HpG8xJdgxdxO/uLml9aw4u7J244faDLO4vc3C3l/nU5uKui0aGkwxur+6s3Xn27j067OhW/U/v2BvhXSfzvMesmbStjbnsLAyxn+G1iJzxKMB91wl3Z0xT2VHcaLg8LkyZwwzuXRv3wmk10b+gOaDStvfQRF0W9/UmWQRy3BMbN3FbqzXtKkVYN3ti48q9OAFJ9MxxpzbuudtaDQxIkyUSksNNbdxz+dLya5P1psIG9Y8tXCjIWaRdXPtMoC/8R2c2bgmnU8sMlJVc2wA6tx1XwvWOnRgQiirZJavaZRbu4I1pQCvf7EUpTVc/gymOAdpNQCLH6JTBxeoWsW5d5Qsr3bmy6upnwAS4M9DuaX4tkjtlcDdx6LWkTJkU0JmDF2fDLM1UY5fkgCIYSRncxqE1cnUsO1x13RB4cc5xsZP7HmmMdjmn0zp3AqC6B1SKSXFcrN3qLRx6VeOr3JDQGN1yuBvcGZ1xYijz46m7dnEQgW9rGHFHS4WOQGKHaWKlTjzk6k0f+LLAA2ky00xi7i99YxgjRrOsf7eLDkM2NETRnyClSrbZHLSLKWThXkyl8nkDMBqHpTyQ5NXq3eVfxgvtNGJlhiaRwKVnJvJeGFoOwQkcPSD1KyQeSPpb6d/OuKN7E9Xvi0iI+5z7bdC1hRKJe1fkI6NesR29YiG6/PTbJ2e/jyMpbsfyilGJT87OvmMShdpdQS+cXrHUFm18OOHi6DLkZ+Ry/4TaXUEjSrte2svjXlCrNwwWSpRq19Qp1VUXkmVx65ts2zaoJNepXZwEjtVl7jbYPQFugOXqj1Vra8Emq1i76NJMt3DD/JINv0pwjQGnnjs8n7+FLdcu2gnah5zzaeytSnDRJBqoy+r7WYlv1spqFyfeqZ4XssqYnopw0eCcqufmHOiY1cpqN7xJpk1qlhnlOvrIABdrwt3QG2lZiaPy2qU2XnrrK/bZFiGusRpH+hTcD7bEennt4q8/g2rm3zDZfxR6IO9YuLhTMoONNC7xfl3ggQSfC7rkwUjfwypjVPp9s+Ts83kVD8TepNNuQM7zDPRz1zCiKZ2Lwxhwd4txW0fp348x3Beofzj6Gbcaw79xZv/pauR/pG54qA9zX6ZXXz0DyW+r5i/xQW0t8WgIO3bhJQ6QD662sjsUYmEUdia8rpoTbdd+nAL/9ZvaJh+R+DkUVbeCA0l43QgPgWLrB5dK4vchveFagxc1gr4czb254SD5Sku3R0VRiEvhxtcap7m2v78/9IG3HtfjelyP63E9rse9DtySkU3/1qXH9bge1+N6XI/rcT2ux/1PXHrz3OP+/3D/AYMXMR8v2eEZAAAAAElFTkSuQmCC;" vertex="1" parent="Py2XDcjCVGJPJYWyRsPz-20">
          <mxGeometry width="55.09" height="60" as="geometry" />
        </mxCell>
        <mxCell id="Py2XDcjCVGJPJYWyRsPz-19" value="" style="group" vertex="1" connectable="0" parent="1">
          <mxGeometry x="540" y="-30" width="340" height="490" as="geometry" />
        </mxCell>
        <mxCell id="Py2XDcjCVGJPJYWyRsPz-7" value="" style="rounded=0;whiteSpace=wrap;html=1;dashed=1;dashPattern=8 8;strokeColor=light-dark(#ff00ff, #004a4a);strokeWidth=2;" vertex="1" parent="Py2XDcjCVGJPJYWyRsPz-19">
          <mxGeometry width="340" height="490" as="geometry" />
        </mxCell>
        <mxCell id="Py2XDcjCVGJPJYWyRsPz-6" value="" style="shape=image;verticalLabelPosition=bottom;labelBackgroundColor=default;verticalAlign=top;aspect=fixed;imageAspect=0;image=data:image/jpeg,/9j/4AAQSkZJRgABAQAAAQABAAD/2wCEAAkGBxEQEBUQExEVEBUWFRsWFhcVFRkdGxcVFhgYGBUTGxoYHTQhGBwlGxcXITMiMSkrMDEuGB81RDMsNyotLisBCgoKDg0OGRAQGzImHyU3NTIxLzItLi0tNzUrLzUtKy83NzUwLzU1LjcrLy0wLiswMi0tLTUrKy0tLS0tLS01Lf/AABEIAMEBBQMBIgACEQEDEQH/xAAcAAEAAgMBAQEAAAAAAAAAAAAABQcDBAYBAgj/xABJEAACAgECAwYDAwgFCQkBAAABAgADEQQSBSExBhMiQVFhB3GBFCMyCDNCUnKRobFTYpPB0hU2Q2OCksLT8TVUdISisrTh8Bb/xAAaAQEAAgMBAAAAAAAAAAAAAAAABAUBAgMG/8QALBEBAAICAQMACQQDAAAAAAAAAAECAxEEEiExBRMiQVFSYYGRFKHR8DJCcf/aAAwDAQACEQMRAD8AvCIiAiIgIiICIiAiIgIiICIiAiIgIiICIiAiIgIiICIiAiIgIiICIiAiIgIiICIiAiIgIiICIiAiIgIiICJo8W4xp9Ineai5KE/WdgMn0Gep9hIWztmpXdRo9VqR6hFrHscah0Yj5CYm0R5Ijfh1ETgNL261vjZ+DajaHIXu7Ky4A/XQkYOCDkZBz1m3w34n8NtfunsfSWdCmpQ14P6u4+HPMecxFqz4lnUu0ifKOCAQQQemPMes+pswREQEREBERAREQEREBERAREQEREBERAREQEREBERAREQE53tr2jOhpUVV9/qLm7rT1fr2EZJPoqjmTOimjxDhNF7JZZWGevd3b5IZN4AbaynK5AGcTE/QVtwv4fNfZ9r4nYdfqDz2Enuqx+oieY+gHt5nq10D0c6tEo5Y8PdKceY5HH0zMeu112juFDt3qWKWpc8m8GN9L45MRuBVuWRnIyuW+k41Z+ofpmU/I5FaX6cu5n9k3FhvevVTTR1PaWuhh9ppv0WTjdagNf8Aa1MyKPmRIrjek0erdvDVqFPPlhgCyDJBHTky8x6idJqOPqqHfXYQeRARmz9ADKl7V1DS2HXaKm/TqT97XsxWQcZdRnNZ5DPIDkPTB43xVz1j1czWfdLtjm2Od3jcJnhdOq4O5v0+oe7TVgk6awsfuywNuznyZUUEeXX3zYXZLtJqNdfcxrSvTKiGr8XekvuOX8l8IVtvPG8c85Ar/WcTTUaW1qnyGqOCPLenT5gEZHuJn7I6ywcYSvvSmntNm1FOO8u09KL4iPxKPGNvTKGTeBmzWr05vLTmcelfaxrliIlkryIiAiIgIiICIiAiIgIiICIiAiIgIiICIiAiIgIiQXbLtD9g0rXKgts6VoTjc2CxJPkoVWY+y+sCdmjxziFem01t9jbURGZj8hyAx1JPID1Mrfi3xM1GoRm0FK1UoCW1epyFwOprqHNvbP7pyHBadXrWGt4jqbLUU7qq3OFOOYtNY8KjzAx/dNYnfaveXWmK1piG5X2sv1eq0Gg1AKW6dbPtFh/Tc1sKyPbZtJ929p0mqe2r29D1B/cZzfCeCs192vuXY17FKlI8SVqFAcjyZgq8vTPrJnTaxkPdv4l6c+ci5cVck+1HeFzwcfTjnX4ZNF2gzb3D5rsIyoJytgHUqfUeann8+s2eL6JNXQ9b5G4bW2kjkfPl/LpOS7cV92tNicmGor2Y67ieYHtjyk32o40NHpLH/Tf7upfMuQeePYHP095Hrxum8dPifd8Jb5LVr1RP924LsZorTTqlTC5Pd96ThQfNgDyAA8RPsok5Zrq11WjOjJ1L6SwMxBwgQ570M/Qu5I9fP1kbwvhSV0JVaxssxuWpQDtZjncUPIsOQ3NyGB9dzRkbqtDpsK91oq3KNy1ls7nZv9JYACceWPLrJlsczki2/CLGKK449Z2jX3/4uvsNxW7V6QX37A7WWDFZJVVVyqrk8ycAHPnmdDIzs3wWrQ6avS1Z2VjGW6sScs59yST9ZJyQqCIiAiIgIiICIiAiIgIiICIiAiIgIiICIiAiIgaHHOL06PT2am59iVrkn1PQKB5sTgAeplJ67jOq4pqL21ANVfdItVOT93Vc2XLf6xq05ny3Acptcd40/E9UaG3dxo7ri4P+k1Hf2CoH1VKwpHu01daxVtcw67EYfIVEA/vDSRTjTenVPhIxU/2ltX6dbhTpwMVYF1ijoUH5ms+gJ5/KsidTo6wvPkWOFXI5KTzLAew6TneHXLhrCQBisZPLwitWGT83P759rx6r9Bjcf9WCw/3vwj6kSVj4taU7TraZ1RPeUtxO0Gxa16IM/U//ALM5vjXF60LnOdmEwD+Kw8xWP63Nf3zDxC7WXZ7kJpd3V7HDOORHhVMhT75kLT2D3ACzWF8ZICjGMnJOWJ5n1xI2bj94isN6ci9P8IfPHu0NQ1FKv96NPhyqc+81GMIuegC9SfXlzm3pOA6viFg1WqIrA/NUlSQqnnkrkY9efM45jykzwbs5p9Kd1dILfrltze+M8l+knabMHIyD7gyPbFNIY6LXmbX/AAhaOyI/CzWOufwBQqH5qmN31zNbTcTq0+tBpRLn0ytXTXnCrawAtvfb+FEUhAB+JmI5YJG9xjtXbaTpNNZl8feWKBtpHnz/AEn9B/0kLRwCupT3RKMUZSxOSxbBDsT1IIz9ZxiZjy6141s/iO3vWL2a+JFLLt11lWmfkUs8S12ocgMC2dhyDlSx5YOec7yi9LFDowdSMhlIII9QRyIlH10Y5YG3YqhfIYz/APQ+k2ezHEjwvUoyEjSW2BLqs+GtnO1L0H6PiIDDoQZtFtuHJ9GWx1m9fHwXXE8WezdVkREBERAREQEREBERAREQEREBERAREQExaq8Vo1h6KpY/JRk/ymWRPa3P2DVY6/Z7cf2bQKV7P61ra+9ddrX7rjy/Tzhx/umph65M2eK6hPCAO8tuBp2KRzAG4sx/RCBs5/r+8xcKrD6TT7CATVWyHyF1abSp9mUFT7K0++CaRO8t1jKQ7sUUEc0C4DJ89wIz5hFlxiiYpFE+InUQx8L7L11Vg3ubioHOw+FdoABCnwqAABnrgdZvvr6hyrre73QAL89zkAj5ZmIXC5sqragqfLArQj+seRYe24ibJqvxkCir3O6z/D/OdN1p2r/LNY+Vi+22/o6ZCPe7B/ctR/nNHW9rqKW7tqTZZnGylw5B9D4Bj5SM4nZq9RqDpq9UwRAO+dECAZH4FwSxY+mZK8L4XTpl21IF9W/Sb3JldyOXqdVSePxsmbvE6j4sP+VtZbnu9ElAPQ3WnOPXCDImsvBtQ+e/1lrKetdbMq4/VyzFiJM2uVGQpf2XH/ERMFOvRm7s7q38lcYJ+R6N9CZAtktbysI4eGsxF53P1fej0ddKBK0CKPIfzJ8z7zPMGr1HdgMemfF7D9b5Dl9MzMDkZHMHoROadXpj2YYtRqETHeA7CRkhioHNcgsvNQV3DdkYO3mAZHMhur1FaNuRl+5JcORuXkCwJ5hxnGSQGEl4rre093Wj3OR+GoEsPTJHJPmSBMwi5sUReb2t214W52c4kuq0lOoXpZWrEHqGxhlPuGyD7iSUh+yXCjpNHTQ2C6rmwjobXJe0j2Ls0mJ3eTnW+xERDBERAREQEREBERAREQEREBERAREQExaqgWI1Z6MpU/JgQf5zLECg+BUFdL9nY7XqZqmx1W2ltu4Z91U/9Zr0amy+x9G47t+93NtPWllDMyn0ZgV9g/rOs7ccLOk1xvA+51Z546LqVXBB9N6AEe6H1nF8U1x0uqq1TIdq/duyjIapz5/qsrc/f+EkV5MxqFtWtb4a3+HaXSW2EAVU7UC+EHHQDlyXpNLU8Oq2FrrrbCAST3rL9MVkCfdVu5AVOd3Qj065E1eJafcmM9QR++dL8uImdxtN/SRanZi7OaMU6ZABgsO8bzOX54J88AgfSScxaX82n7I/lMsrJncrPFSKUisExamhbF2sMjqPUHyYHyI9ZliYbzG41LW0rF0w3NlJVvcr+l9Rg/WfNOi2HwnaD5Dp88dJjew1WMcEq3M4GSD+tjzGOR8+QmevXVMcLYpI6jIyM9MjqJlw6qRHt+YY7dExIYXOrDI6IwwevhdSoPo2MibfCNXdobK7arrmXeosqexmSxWO1htP4G55BGOYHlNandqm7qklV3YstwQECnxquebP5eg9eWD01HZbT2nY1lu0hj+cPIhSQwP4hgjPXHnI2Tm4sWSKTPdB5UYLRaYrvt5Wionsgew/EH1GgpssO6zaUdsY3PU7VM+P6xQn6yelhE7ebIiICIiAiIgIiICIiAiIgIiICIiAiIgIiIGjxrhVWrpei1dyOMHBwQRzVlPkwIBB8iJUnFeGW6Oz7PqPFuz3dmBtuUfwFmOqfUcul0zV4lw6rU1mq6tbUbqrDIyOYPsQeYPUTExtJ43KtgtuPHvhRtejNJzVjYTk1E4AJ6lD+j+z0+U20fd5EeoI/h6GdVxTsBfWc6W1bUz+avYhlHotoB3fJhn+tOe1HD9TV+c0l6fs1mwfMGncJzmsvQcfm8e3idfSWBVAGB0ns88X9Hb/AGNv+GPF/R2/2Nn+Ga6lL9fi+aPy9ieeL+jt/sbP8MeL+jt/sbP8Mak/UYvmj8vm5VIycADz9JMdjgi6fW30aittRbpytFa2obCK1sZX2g7gSz8h6KD5yC1tAsQpZTa6nGR3N3PByPwrzE124PbaVq02lcWAq1TCh6+7fPKzvCoCbeTfQjnmbVhW+kLVy01W0aj692HsvxE6WoZQ2VOAyug5jPXI8skZOfPPPyE2/aqnH3YZ38lwOvvg5x8syb7ZdkbKLRqdJU7IwsfUVoUKh8BhaiMQRk78hTzOOXPM0ux/ZluJVtbbcy0iwoBXWUNyhVJO9mJC5YqcAHKnnIOb0Xgy5PWWjujU5dIw739nW/Cq9n4VQWXGN6g4I3qtjgW4PQt1+s66YdJpkqRa0UIiKFVVGAqqMBQPQCZpZ+FNM7IiICIiAiIgIiICIiAiIgIifLuFBJIAAySfIDqYH1E4fsj8T9HxLVnSVJYjBWZWcLtcIRnbhienPmOgM7iAiIgIiICIiAnmJ7OC+LfbW/hFNFlNdVhsdlItDEABcgjawgd7E1+HXGymuw4BdFY46ZZQTj2mxAREQE8xPYgJ4BKpb48cPHI6bVenSr/mTw/Hrh//AHbVfuq/5kC2IlcfFnt3qeFV6azTpU/fF9wtVjjaEK42uMfiPrOg7W9s6uGaSvVXI1hsKqqV4yWZdx/EcAAAwOniRXZfj1XENJXq6gypYDyYcwVYqynHLkQZKwERK17Y9vdVouNaXh1aUmq/udzOrlx3trI20hwOgGORgWVE8E9gIiICIiAiIgJX3xt7R/Y+GNWrbbdT90uOoTra3+74f9sSwZ+afid2nr1XGwWU3afSOK9in8ext12CRjxN4c+iiBj4p2fu4EvC+JoD3jDfaCelmd/de2an2H9kz9I8N1qX013VncliK6n1VhkfzlB9u/ihRxTRPpDoLa2JVq3LqdjqeRxt9Mj6zrvyfu0ff6N9E5y+nOU96XOR+5tw+RECf4l8T9DptdbobhbW1KlnsKrs5ViwAYbcSQwAG3rOdX486HvNv2bUBM/i+7Jx67d38MzluLcKp1nbF9PeAa2sUsp6Ps0yuE+pUfxly9ouzOj1OkfT2U1LWEO0hFHd4HJ1IHhx1+kCQ4LxejWUJqKLBbW4yrD+IIPMEdCJwvHPjDoqL309VN+sZCVc1KNoIOCMnmcH2x7zm/yc9eRRrUc4qQ125J5KWVw59vCin6Tc0vxKu1Oou/yRwf7Rls2XHClz0VnwOXIcstnHkIHU9ifibo+KWnTqtmnuAJFdoHiC/i2lTzI9Dg9euDJ/tR2m0vDae/1Nmxc4UAZZ2/VVR1P8BKROu1dnafRWarSpobiyBkRgdyneA5IJySCR8hN/4qUjWdpNJor3K0FalxnAxY7F8ehbAXPsPSBOVfHrQl9raXUKmcbvuyQPUru/vkd8f+IV6nh2h1FTb67LGdGwRlSnI4bmJauo7M6KyhdM2lpNS7cJ3a4G3pgY5SsvykVA0mkAAAFzch+xA29T8aNDpBXp0qt1OytFZ6yoXcFAKqSfFg8s4xLA7J9ptPxPTjU6diVyVZWGGRxjKMPI4I9uciuGdltIvB10oor2NphuyoyzsmS5OMltxzmcF+TZYe71q+Qakge5Fo/uEDue2XxI0XDLBQ2++84+6pALDPTcScLn05n2kV2e+MGi1OoXTW1XaJ3ICm0DaSeikjmpJ6ZGPeVd2A43rE1+r1lXDm4nezEs2TmrezEkYU4zjHsFxJj4hWcV4xXWrcCtoetsixQWbaQQa+ajlnB/2YH6AiRnZl7W0WnNylbTTX3gbqH2jcD75zJOB+ffgEtB1Ws74VkbEx3m3H42zjdLsFPDzy26U/SufnX4X9iKOMX6iu6yyoVAMvd7eZZiDncD6Sy9F8DNDVYlo1OoJR1cA93glSCAfB05QIj8pMfdaLHTdb/7a53fbjiWj03C0s1unOqp+7UoFVjuI8LeJhjGOuZwv5Sv5vRft3fyrk38b/8AsFf26f5GB1PDeP6WrhC6+qlqtMlJsWpVQMEXPIKG255es5nV/Gvh6aeu9a7naxmAq8AdVU43t4iFBPTnk4M+dH/mef8AwL/8U0vye+DUfYLNSa1e17mQsygkIirhASOQySYHUdhPiTpOLM1VavTao3d3ZjxL5spB54yMjkZX3xQ/zp4d/wCV/wDkvMHDdImm7ad1UO7TvGO1eQ+80jOwwPLcc4n18W2cdpdEa1D2BKCiscBnF9hVSfIE45wLR7a9utJwlUN5d2c+GuoKXwOrkMwAXyzmS/Z7iv2yhdR3NtAcZVbgofafwsQrHGRzxnMon4d1VcQ43a/FHJ1StmumwYVrUJyhB6bABhPPn1xP0OBA9iIgIiICIiBG9ozqBpbfsqB7yhFQLAAORgMSTjAzn6Tg/g32Dv4b39+rUC+whVwwbFY8RO4HqzH/ANIlnRA8Kj0lO8J7CcQ4dx5tZpalbSPYQw7xQe5twXXaTnwNzA89glxxA/OXarhVur7V3UU2mi1mVq7BnwvXpRYp5cxzTGfeTXFtF2u1VZ0dijuz4HsRqF3r0JZg27aepwAfbyk7X2O1w7UHifcj7NvJ370zj7Ka87c7vxcuktaBxXYnsGnD+G2aNn32Xq3fOoPV12YXz2qOn1PnOB7OcC7R8Ea2jS6WnV1O27czLtJA2hhmxWU4AyDkcpecQKZp7C8XfjOk4lqSlxDI95RlC1YLDukUnLKq7Tn3PWdH8Vfh63FBXqNO4q1VQwpbIDoDuClhzUhiSD7n1yLDiBSHddsbEGmOKwCB326gHC+ZdWLEfTJ/fJ34q9kuI8S0WkqVa7r62LXFWCJkoASu89CfKWlEDR0dDLpUrI8QpCEZ/SCAEZ+cr74Kdj9Zwwaoaqta+87rZtdWzs7zd+E8vxCWfECoeN9huJcP4hZxHg5Rxbk2adyBzY5YAMQGXOSOYI6dJ5RpO1Ov1NLXMnDa6mDEoUw3kcoHY2HGRhiF5y34geIOU9iIFUfBvsVruG36l9VWqC1FCbbFbJViSPCeXIy14iBWPxq7IaziiaZdLWHNbWF9zquAwTH4jz6GSnxP7OanX8JXS0IGt3VkgsqjCDxcycTuogcNp+zmpHZw8OKD7R9larbuXG85wN2cec+vhD2e1PDuHnT6lAlnfO+AysNrBcHKn2M7eIFVnsZrf/6j/Kndr9m3Z3b1zj7N3X4c5/FPO3HYzW6rjuj11VatTT3G9jYoI7u5nfCk5OFIlqxAqz4qfDm3WWpr9BhNUrLvG4Lu2/gtDE4DrgfMfLn3PZK7WtplGuqFV6+FirKyvjpYNp5Z8x658sSaiAiIgIiICIiAiIgIiICIiAiIgIiICIiAiIgIiICIiAiIgIiICIiAiIgIiICIiAiIgIiICIiAiIgIiICIiAiIgIiICIiAiIgIiICIiAiIgIiICIiAiIgIiICIiB//2Q==;" vertex="1" parent="Py2XDcjCVGJPJYWyRsPz-19">
          <mxGeometry width="67.62" height="50" as="geometry" />
        </mxCell>
        <mxCell id="qBU9AZNJRnupBbMAvt6M-1" value="Python App 1&lt;br&gt;&lt;div&gt;Plant data&lt;/div&gt;" style="rounded=1;whiteSpace=wrap;html=1;" parent="1" vertex="1">
          <mxGeometry x="127" y="97" width="120" height="60" as="geometry" />
        </mxCell>
        <mxCell id="qBU9AZNJRnupBbMAvt6M-2" value="Python App 2&lt;div&gt;Weather data&lt;/div&gt;" style="rounded=1;whiteSpace=wrap;html=1;" parent="1" vertex="1">
          <mxGeometry x="127" y="238" width="120" height="60" as="geometry" />
        </mxCell>
        <mxCell id="Py2XDcjCVGJPJYWyRsPz-23" style="edgeStyle=orthogonalEdgeStyle;rounded=0;orthogonalLoop=1;jettySize=auto;html=1;" edge="1" parent="1" source="qBU9AZNJRnupBbMAvt6M-10" target="Py2XDcjCVGJPJYWyRsPz-21">
          <mxGeometry relative="1" as="geometry">
            <Array as="points">
              <mxPoint x="950" y="50" />
              <mxPoint x="950" y="210" />
            </Array>
          </mxGeometry>
        </mxCell>
        <mxCell id="qBU9AZNJRnupBbMAvt6M-10" value="flink job generator_metric" style="rounded=1;whiteSpace=wrap;html=1;" parent="1" vertex="1">
          <mxGeometry x="650" y="20" width="120" height="60" as="geometry" />
        </mxCell>
        <mxCell id="qBU9AZNJRnupBbMAvt6M-13" style="edgeStyle=orthogonalEdgeStyle;rounded=0;orthogonalLoop=1;jettySize=auto;html=1;entryX=0.025;entryY=0.638;entryDx=0;entryDy=0;entryPerimeter=0;" parent="1" source="qBU9AZNJRnupBbMAvt6M-1" target="qBU9AZNJRnupBbMAvt6M-3" edge="1">
          <mxGeometry relative="1" as="geometry" />
        </mxCell>
        <mxCell id="qBU9AZNJRnupBbMAvt6M-14" style="edgeStyle=orthogonalEdgeStyle;rounded=0;orthogonalLoop=1;jettySize=auto;html=1;entryX=0.025;entryY=0.79;entryDx=0;entryDy=0;entryPerimeter=0;" parent="1" source="qBU9AZNJRnupBbMAvt6M-2" target="qBU9AZNJRnupBbMAvt6M-4" edge="1">
          <mxGeometry relative="1" as="geometry" />
        </mxCell>
        <mxCell id="Py2XDcjCVGJPJYWyRsPz-1" value="" style="group" vertex="1" connectable="0" parent="1">
          <mxGeometry x="335" y="100" width="110" height="72" as="geometry" />
        </mxCell>
        <mxCell id="qBU9AZNJRnupBbMAvt6M-3" value="" style="points=[];aspect=fixed;html=1;align=center;shadow=0;dashed=0;fillColor=#FF6A00;strokeColor=none;shape=mxgraph.alibaba_cloud.kafka;" parent="Py2XDcjCVGJPJYWyRsPz-1" vertex="1">
          <mxGeometry x="22" width="56.699999999999996" height="42" as="geometry" />
        </mxCell>
        <mxCell id="qBU9AZNJRnupBbMAvt6M-5" value="Generator Topic" style="text;html=1;align=center;verticalAlign=middle;resizable=0;points=[];autosize=1;strokeColor=none;fillColor=none;" parent="Py2XDcjCVGJPJYWyRsPz-1" vertex="1">
          <mxGeometry y="42" width="110" height="30" as="geometry" />
        </mxCell>
        <mxCell id="Py2XDcjCVGJPJYWyRsPz-2" value="" style="group" vertex="1" connectable="0" parent="1">
          <mxGeometry x="340" y="234" width="100" height="72" as="geometry" />
        </mxCell>
        <mxCell id="qBU9AZNJRnupBbMAvt6M-4" value="" style="points=[];aspect=fixed;html=1;align=center;shadow=0;dashed=0;fillColor=#FF6A00;strokeColor=none;shape=mxgraph.alibaba_cloud.kafka;" parent="Py2XDcjCVGJPJYWyRsPz-2" vertex="1">
          <mxGeometry x="21.649999999999977" width="56.699999999999996" height="42" as="geometry" />
        </mxCell>
        <mxCell id="qBU9AZNJRnupBbMAvt6M-6" value="Weather Topic" style="text;html=1;align=center;verticalAlign=middle;resizable=0;points=[];autosize=1;strokeColor=none;fillColor=none;" parent="Py2XDcjCVGJPJYWyRsPz-2" vertex="1">
          <mxGeometry y="42" width="100" height="30" as="geometry" />
        </mxCell>
        <mxCell id="Py2XDcjCVGJPJYWyRsPz-24" style="edgeStyle=orthogonalEdgeStyle;rounded=0;orthogonalLoop=1;jettySize=auto;html=1;" edge="1" parent="1" source="Py2XDcjCVGJPJYWyRsPz-9" target="Py2XDcjCVGJPJYWyRsPz-21">
          <mxGeometry relative="1" as="geometry" />
        </mxCell>
        <mxCell id="Py2XDcjCVGJPJYWyRsPz-9" value="flink job daily_yield_metric" style="rounded=1;whiteSpace=wrap;html=1;" vertex="1" parent="1">
          <mxGeometry x="650" y="130" width="120" height="60" as="geometry" />
        </mxCell>
        <mxCell id="Py2XDcjCVGJPJYWyRsPz-25" style="edgeStyle=orthogonalEdgeStyle;rounded=0;orthogonalLoop=1;jettySize=auto;html=1;" edge="1" parent="1" source="Py2XDcjCVGJPJYWyRsPz-10" target="Py2XDcjCVGJPJYWyRsPz-21">
          <mxGeometry relative="1" as="geometry" />
        </mxCell>
        <mxCell id="Py2XDcjCVGJPJYWyRsPz-10" value="&lt;div&gt;flink job&amp;nbsp;&lt;/div&gt;&lt;div&gt;hourly_yield&lt;/div&gt;" style="rounded=1;whiteSpace=wrap;html=1;" vertex="1" parent="1">
          <mxGeometry x="650" y="238" width="120" height="60" as="geometry" />
        </mxCell>
        <mxCell id="Py2XDcjCVGJPJYWyRsPz-26" style="edgeStyle=orthogonalEdgeStyle;rounded=0;orthogonalLoop=1;jettySize=auto;html=1;" edge="1" parent="1" source="Py2XDcjCVGJPJYWyRsPz-11" target="Py2XDcjCVGJPJYWyRsPz-21">
          <mxGeometry relative="1" as="geometry">
            <Array as="points">
              <mxPoint x="950" y="390" />
              <mxPoint x="950" y="210" />
            </Array>
          </mxGeometry>
        </mxCell>
        <mxCell id="Py2XDcjCVGJPJYWyRsPz-11" value="flink job weather_metric" style="rounded=1;whiteSpace=wrap;html=1;" vertex="1" parent="1">
          <mxGeometry x="650" y="360" width="120" height="60" as="geometry" />
        </mxCell>
        <mxCell id="Py2XDcjCVGJPJYWyRsPz-12" style="edgeStyle=orthogonalEdgeStyle;rounded=0;orthogonalLoop=1;jettySize=auto;html=1;" edge="1" parent="1" source="qBU9AZNJRnupBbMAvt6M-3" target="qBU9AZNJRnupBbMAvt6M-10">
          <mxGeometry relative="1" as="geometry">
            <Array as="points">
              <mxPoint x="510" y="121" />
              <mxPoint x="510" y="40" />
            </Array>
          </mxGeometry>
        </mxCell>
        <mxCell id="Py2XDcjCVGJPJYWyRsPz-13" style="edgeStyle=orthogonalEdgeStyle;rounded=0;orthogonalLoop=1;jettySize=auto;html=1;" edge="1" parent="1" source="qBU9AZNJRnupBbMAvt6M-3" target="Py2XDcjCVGJPJYWyRsPz-9">
          <mxGeometry relative="1" as="geometry">
            <Array as="points">
              <mxPoint x="510" y="121" />
              <mxPoint x="510" y="160" />
            </Array>
          </mxGeometry>
        </mxCell>
        <mxCell id="Py2XDcjCVGJPJYWyRsPz-14" style="edgeStyle=orthogonalEdgeStyle;rounded=0;orthogonalLoop=1;jettySize=auto;html=1;" edge="1" parent="1" source="qBU9AZNJRnupBbMAvt6M-3" target="Py2XDcjCVGJPJYWyRsPz-10">
          <mxGeometry relative="1" as="geometry">
            <Array as="points">
              <mxPoint x="510" y="121" />
              <mxPoint x="510" y="270" />
            </Array>
          </mxGeometry>
        </mxCell>
        <mxCell id="Py2XDcjCVGJPJYWyRsPz-15" style="edgeStyle=orthogonalEdgeStyle;rounded=0;orthogonalLoop=1;jettySize=auto;html=1;" edge="1" parent="1" source="qBU9AZNJRnupBbMAvt6M-4" target="Py2XDcjCVGJPJYWyRsPz-11">
          <mxGeometry relative="1" as="geometry">
            <Array as="points">
              <mxPoint x="510" y="255" />
              <mxPoint x="510" y="400" />
            </Array>
          </mxGeometry>
        </mxCell>
        <mxCell id="Py2XDcjCVGJPJYWyRsPz-16" style="edgeStyle=orthogonalEdgeStyle;rounded=0;orthogonalLoop=1;jettySize=auto;html=1;" edge="1" parent="1" source="qBU9AZNJRnupBbMAvt6M-4" target="Py2XDcjCVGJPJYWyRsPz-9">
          <mxGeometry relative="1" as="geometry">
            <Array as="points">
              <mxPoint x="510" y="255" />
              <mxPoint x="510" y="160" />
            </Array>
          </mxGeometry>
        </mxCell>
        <mxCell id="Py2XDcjCVGJPJYWyRsPz-27" value="" style="image;aspect=fixed;html=1;points=[];align=center;fontSize=12;image=img/lib/azure2/other/Grafana.svg;" vertex="1" parent="1">
          <mxGeometry x="1275" y="149.6" width="155.58" height="120.8" as="geometry" />
        </mxCell>
        <mxCell id="Py2XDcjCVGJPJYWyRsPz-28" style="edgeStyle=orthogonalEdgeStyle;rounded=0;orthogonalLoop=1;jettySize=auto;html=1;" edge="1" parent="1" source="Py2XDcjCVGJPJYWyRsPz-21" target="Py2XDcjCVGJPJYWyRsPz-27">
          <mxGeometry relative="1" as="geometry">
            <Array as="points" />
          </mxGeometry>
        </mxCell>
        <mxCell id="Py2XDcjCVGJPJYWyRsPz-29" value="Grafana Dashboard" style="text;html=1;align=center;verticalAlign=middle;resizable=0;points=[];autosize=1;strokeColor=none;fillColor=none;" vertex="1" parent="1">
          <mxGeometry x="1287.79" y="270.4" width="130" height="30" as="geometry" />
        </mxCell>
      </root>
    </mxGraphModel>
  </diagram>
</mxfile>
